<svg width="544" height="128" viewBox="0 0 544 128" fill="none" xmlns="http://www.w3.org/2000/svg">
<path d="M82.375 128V118.875H91.5V109.75H100.688V73.1875H91.5V64H73.25V54.875H27.5V45.75H18.375V27.4375H27.5V18.3125H73.25V27.4375H82.375V36.625H100.688V18.3125H91.5V9.1875H82.375V0H18.375V9.1875H9.25V18.3125H0.125V54.875H9.25V64H27.5V73.1875H73.25V82.3125H82.375V100.625H73.25V109.75H27.5V100.625H18.375V91.4375H0.125V109.75H9.25V118.875H18.375V128H82.375ZM169.125 128V118.875H178.25V128H196.562V36.625H178.25V100.625H169.125V109.75H146.25V100.625H137.125V36.625H118.875V109.75H128V118.875H137.125V128H169.125ZM233.125 128V118.875H242.25V128H278.875V118.875H288V109.75H297.125V54.875H288V45.75H278.875V36.625H242.25V45.75H233.125V0H214.875V128H233.125ZM242.25 109.75V100.625H233.125V64H242.25V54.875H269.688V64H278.875V100.625H269.688V109.75H242.25ZM333.625 128V64H342.75V54.875H361.062V64H370.188V128H388.5V64H397.625V54.875H415.938V64H425.062V128H443.375V54.875H434.188V45.75H425.062V36.625H388.5V45.75H370.188V36.625H342.75V45.75H333.625V36.625H315.375V128H333.625ZM479.875 22.875V4.625H461.625V22.875H479.875ZM479.875 128V36.625H461.625V128H479.875ZM543.812 128V109.75H525.562V50.3125H543.812V36.625H525.562V9.1875H507.25V36.625H493.562V50.3125H507.25V118.875H516.375V128H543.812Z" fill="black"/>
</svg>