<svg width="1093" height="348" viewBox="0 0 1093 348" fill="none" xmlns="http://www.w3.org/2000/svg">
<path d="M73.25 128V118.875H82.375V109.75H91.5V100.625H100.688V27.4375H91.5V18.3125H82.375V9.1875H73.25V0H0.125V128H73.25ZM18.375 109.75V18.3125H64.125V27.4375H73.25V36.625H82.375V91.4375H73.25V100.625H64.125V109.75H18.375ZM182.875 128V118.875H192V109.75H201.125V100.625H173.688V109.75H146.25V100.625H137.125V86.875H201.125V54.875H192V45.75H182.875V36.625H137.125V45.75H128V54.875H118.875V109.75H128V118.875H137.125V128H182.875ZM137.125 73.1875V64H146.25V54.875H173.688V64H182.875V73.1875H137.125ZM265.125 128V109.75H274.312V91.4375H283.438V73.1875H292.562V54.875H301.688V36.625H283.438V54.875H274.312V73.1875H265.125V91.4375H246.875V73.1875H237.688V54.875H228.562V36.625H210.312V54.875H219.438V73.1875H228.562V91.4375H237.688V109.75H246.875V128H265.125ZM374.875 128V118.875H384V109.75H393.125V100.625H365.688V109.75H338.25V100.625H329.125V86.875H393.125V54.875H384V45.75H374.875V36.625H329.125V45.75H320V54.875H310.875V109.75H320V118.875H329.125V128H374.875ZM329.125 73.1875V64H338.25V54.875H365.688V64H374.875V73.1875H329.125ZM429.625 128V0H411.375V128H429.625ZM511.875 128V118.875H521V109.75H530.125V54.875H521V45.75H511.875V36.625H466.125V45.75H457V54.875H447.875V109.75H457V118.875H466.125V128H511.875ZM475.25 109.75V100.625H466.125V64H475.25V54.875H502.688V64H511.875V100.625H502.688V109.75H475.25ZM566.625 164.562V118.875H575.75V128H612.375V118.875H621.5V109.75H630.625V54.875H621.5V45.75H612.375V36.625H575.75V45.75H566.625V36.625H548.375V164.562H566.625ZM575.75 109.75V100.625H566.625V64H575.75V54.875H603.188V64H612.375V100.625H603.188V109.75H575.75ZM712.875 128V118.875H722V109.75H731.125V100.625H703.688V109.75H676.25V100.625H667.125V86.875H731.125V54.875H722V45.75H712.875V36.625H667.125V45.75H658V54.875H648.875V109.75H658V118.875H667.125V128H712.875ZM667.125 73.1875V64H676.25V54.875H703.688V64H712.875V73.1875H667.125ZM804.188 128V118.875H813.375V128H831.625V0H813.375V45.75H804.188V36.625H767.625V45.75H758.5V54.875H749.375V109.75H758.5V118.875H767.625V128H804.188ZM776.75 109.75V100.625H767.625V64H776.75V54.875H804.188V64H813.375V100.625H804.188V109.75H776.75ZM913.812 128V50.3125H932.062V36.625H913.812V18.3125H932.062V0H904.625V9.1875H895.5V36.625H881.812V50.3125H895.5V128H913.812ZM1005.38 128V118.875H1014.5V109.75H1023.62V54.875H1014.5V45.75H1005.38V36.625H959.625V45.75H950.5V54.875H941.375V109.75H950.5V118.875H959.625V128H1005.38ZM968.75 109.75V100.625H959.625V64H968.75V54.875H996.188V64H1005.38V100.625H996.188V109.75H968.75ZM1060.12 128V64H1069.25V54.875H1092.12V36.625H1069.25V45.75H1060.12V36.625H1041.88V128H1060.12ZM54.9375 311V301.875H64.125V311H82.375V237.875H73.25V228.75H64.125V219.625H18.375V228.75H9.25V237.875H0.125V247H27.5V237.875H54.9375V247H64.125V256.188H27.5V265.312H9.25V274.438H0.125V292.75H9.25V301.875H18.375V311H54.9375ZM22.9375 292.75V274.438H54.9375V265.312H64.125V283.625H54.9375V292.75H22.9375ZM182.875 347.562V219.625H164.625V228.75H155.438V219.625H118.875V228.75H109.75V237.875H100.625V292.75H109.75V301.875H118.875V311H155.438V301.875H164.625V347.562H182.875ZM128 292.75V283.625H118.875V247H128V237.875H155.438V247H164.625V283.625H155.438V292.75H128ZM251.375 311V301.875H260.5V311H278.812V219.625H260.5V283.625H251.375V292.75H228.5V283.625H219.375V219.625H201.125V292.75H210.25V301.875H219.375V311H251.375ZM351.938 311V301.875H361.125V311H379.375V237.875H370.25V228.75H361.125V219.625H315.375V228.75H306.25V237.875H297.125V247H324.5V237.875H351.938V247H361.125V256.188H324.5V265.312H306.25V274.438H297.125V292.75H306.25V301.875H315.375V311H351.938ZM319.938 292.75V274.438H351.938V265.312H361.125V283.625H351.938V292.75H319.938ZM438.812 311V292.75H420.562V233.312H438.812V219.625H420.562V192.188H402.25V219.625H388.562V233.312H402.25V301.875H411.375V311H438.812ZM470.875 205.875V187.625H452.625V205.875H470.875ZM470.875 311V219.625H452.625V311H470.875ZM553.125 311V301.875H562.25V292.75H571.375V274.438H553.125V283.625H543.938V292.75H516.5V283.625H507.375V247H516.5V237.875H543.938V247H553.125V256.188H571.375V237.875H562.25V228.75H553.125V219.625H507.375V228.75H498.25V237.875H489.125V292.75H498.25V301.875H507.375V311H553.125ZM644.375 311V183H626.125V311H644.375ZM680.875 205.875V187.625H662.625V205.875H680.875ZM680.875 311V219.625H662.625V311H680.875ZM726.562 311V233.312H744.812V219.625H726.562V201.312H744.812V183H717.375V192.188H708.25V219.625H694.562V233.312H708.25V311H726.562ZM818.125 311V301.875H827.25V292.75H836.375V283.625H808.938V292.75H781.5V283.625H772.375V269.875H836.375V237.875H827.25V228.75H818.125V219.625H772.375V228.75H763.25V237.875H754.125V292.75H763.25V301.875H772.375V311H818.125ZM772.375 256.188V247H781.5V237.875H808.938V247H818.125V256.188H772.375ZM872.875 311V292.75H854.625V311H872.875Z" fill="black"/>
</svg>
