<svg width="462" height="128" viewBox="0 0 462 128" fill="none" xmlns="http://www.w3.org/2000/svg">
<path d="M18.375 128V100.625H82.375V128H100.688V100.625H91.5V73.1875H82.375V45.75H73.25V18.3125H64.125V0H36.6875V18.3125H27.5V45.75H18.375V73.1875H9.25V100.625H0.125V128H18.375ZM27.5 82.3125V73.1875H36.6875V45.75H45.8125V27.4375H54.9375V45.75H64.125V73.1875H73.25V82.3125H27.5ZM137.125 128V118.875H146.25V128H182.875V118.875H192V109.75H201.125V54.875H192V45.75H182.875V36.625H146.25V45.75H137.125V0H118.875V128H137.125ZM146.25 109.75V100.625H137.125V64H146.25V54.875H173.688V64H182.875V100.625H173.688V109.75H146.25ZM283.375 128V118.875H292.5V109.75H301.625V54.875H292.5V45.75H283.375V36.625H237.625V45.75H228.5V54.875H219.375V109.75H228.5V118.875H237.625V128H283.375ZM246.75 109.75V100.625H237.625V64H246.75V54.875H274.188V64H283.375V100.625H274.188V109.75H246.75ZM370.125 128V118.875H379.25V128H397.562V36.625H379.25V100.625H370.125V109.75H347.25V100.625H338.125V36.625H319.875V109.75H329V118.875H338.125V128H370.125ZM461.562 128V109.75H443.312V50.3125H461.562V36.625H443.312V9.1875H425V36.625H411.312V50.3125H425V118.875H434.125V128H461.562Z" fill="black"/>
</svg>