<svg width="23" height="34" viewBox="0 0 23 34" fill="none" xmlns="http://www.w3.org/2000/svg">
<path d="M23 26.1747H21.7264V28.7742H20.4771V30.0757H19.1831V31.384H17.8958V32.6923H15.3486V33.9867H7.67489V32.7017H5.13457V31.3935H3.84048V30.0919H2.55324V28.7904H1.29712V26.1771H0.00037972V25.9552C0.00037972 23.4636 -0.00113916 20.9721 0.0018986 18.4806C0.00227832 18.0534 0.0262007 17.6263 0.0288587 17.1992C0.0296181 17.0536 0.0896139 17.0208 0.213402 17.0236C0.491737 17.0295 0.770451 17.0264 1.04879 17.0244C1.12321 17.024 1.19764 17.0145 1.28573 17.0082V14.3901H2.54222V11.7767H3.82947V10.4752H5.11672V7.86182H6.37284V6.52073H7.66692V3.90777H8.95417V1.29442H10.2103V0H12.7954V2.59081H14.0447V3.89235H15.3319V6.5057H16.626V7.84679H17.8821V10.4601H19.1694V11.7684H20.4635V14.375H21.7196V18.2939H22.9996V26.1743L23 26.1747Z" fill="#0000FF"/>
</svg>