<svg width="380" height="160" viewBox="0 0 380 160" fill="none" xmlns="http://www.w3.org/2000/svg">
<path d="M298.71 0.04C340.38 0.07 374.01 30.45 378.58 72.08C382.92 111.61 355.4 148.94 315.4 157.48C310.11 158.61 304.58 159.12 299.16 159.12C175.91 159.21 202.79 159.23 79.54 159.16C35.44 159.14 -0.029981 123.5 1.90161e-05 79.54C0.030019 35.61 35.53 0.1 79.67 0.05C141.3 -0.02 237.28 -1.11759e-08 298.71 0.04Z" fill="black"/>
<path d="M75.23 125.98V33.19H128.24V39.85H134.85V46.46H141.46V72.96H134.85V79.57H141.46V86.23H148.12V112.73H141.46V119.34H134.85V125.95H75.23V125.98ZM121.62 72.97V66.36H128.23V53.09H121.62V46.48H88.46V72.98H121.62V72.97ZM128.23 112.75V106.14H134.84V92.87H128.23V86.26H88.45V112.76H128.23V112.75Z" fill="white"/>
<path d="M161.36 125.98V33.19H174.59V66.35H181.2V59.74H204.4V66.35H211.06V72.96H217.67V125.97H204.4V79.58H197.79V72.97H181.21V79.58H174.6V125.97H161.37L161.36 125.98Z" fill="white"/>
<path d="M230.9 125.98V106.14H237.51V86.25H244.12V66.36H250.73V46.47H257.39V33.2H277.28V46.47H283.89V66.36H290.5V86.25H297.11V106.14H303.77V125.98H290.5V106.14H244.11V125.98H230.88H230.9ZM283.91 92.86V86.25H277.3V66.36H270.64V53.09H264.03V66.36H257.42V86.25H250.76V92.86H283.92H283.91Z" fill="white"/>
</svg>
