<svg width="64" height="27" viewBox="0 0 64 27" fill="none" xmlns="http://www.w3.org/2000/svg">
    <path d="M31.7282 0.130279C42.0063 0.130279 39.7246 0.126092 50.0027 0.130279C56.9735 0.134465 62.6003 5.21701 63.3664 12.1835C64.0907 18.7984 59.4896 25.0448 52.7952 26.4724C51.9077 26.6608 50.9866 26.7488 50.0781 26.7488C29.4548 26.7655 33.9555 26.7697 13.3322 26.7571C5.9512 26.7571 0.0187648 20.7912 0.0229514 13.4353C0.027138 6.08783 5.96794 0.147025 13.3531 0.138652C23.6648 0.126092 21.4165 0.138652 31.7282 0.138652V0.130279Z" fill="#0000FF"/>
    <path d="M12.6123 21.2058V5.68188H21.4837V6.79552H22.589V7.90079H23.6943V12.3344H22.589V13.4397H23.6943V14.5533H24.8079V18.9869H23.6943V20.0922H22.589V21.1975H12.6123V21.2058ZM20.3743 12.3344V11.2291H21.4796V9.00606H20.3743V7.90079H14.827V12.3344H20.3743ZM21.4796 18.9911V17.8859H22.5848V15.6628H21.4796V14.5575H14.8228V18.9911H21.4796V18.9911Z" fill="white"/>
    <path d="M27.0223 21.2058V5.68188H29.237V11.2291H30.3422V10.1239H34.2232V11.2291H35.3369V12.3344H36.4421V21.2058H34.219V13.4439H33.1138V12.3386H30.3381V13.4439H29.2328V21.2058H27.0181H27.0223Z" fill="white"/>
    <path d="M38.6571 21.2059V17.8859H39.7624V14.5575H40.8676V11.2292H41.9729V7.90083H43.0865V5.67773H46.4149V7.90083H47.5202V11.2292H48.6254V14.5575H49.7307V17.8859H50.8443V21.2059H48.6212V17.8859H40.8593V21.2059H38.6445H38.6571ZM47.5285 15.6628V14.5575H46.4233V11.2292H45.3096V9.00609H44.2044V11.2292H43.0991V14.5575H41.9855V15.6628H47.5327H47.5285Z" fill="white"/>
</svg>