<svg width="59" height="26" viewBox="0 0 59 26" fill="none" xmlns="http://www.w3.org/2000/svg">
<path d="M46.4974 0.506194C52.9837 0.510905 58.2186 5.28163 58.93 11.819C59.6055 18.0266 55.3218 23.8887 49.0953 25.2298C48.2719 25.4073 47.4111 25.4874 46.5674 25.4874C27.3822 25.5015 31.5664 25.5046 12.3812 25.4936C5.51661 25.4905 -0.00466686 19.8938 2.96006e-06 12.9905C0.00467278 6.09194 5.53062 0.515616 12.4015 0.507764C21.9948 0.496772 36.9351 0.499913 46.4974 0.506194Z" fill="black"/>
<path d="M11.7104 20.2832V5.71191H19.962V6.75777H20.9909V7.79577H22.0198V11.9572H20.9909V12.9952H22.0198V14.0411H23.0565V18.2025H22.0198V19.2405H20.9909V20.2785H11.7104V20.2832ZM18.9315 11.9588V10.9208H19.9605V8.83691H18.9315V7.79891H13.7698V11.9603H18.9315V11.9588ZM19.9605 18.2056V17.1676H20.9894V15.0838H19.9605V14.0458H13.7683V18.2072H19.9605V18.2056Z" fill="#999999"/>
<path d="M25.1177 20.2832V5.71191H27.1771V10.9192H28.206V9.8812H31.8173V10.9192H32.854V11.9572H33.8829V20.2816H31.8173V12.9968H30.7884V11.9588H28.2075V12.9968H27.1786V20.2816H25.1192L25.1177 20.2832Z" fill="#999999"/>
<path d="M35.9421 20.2831V17.1675H36.971V14.0441H37.9999V10.9207H39.0288V7.79724H40.0655V5.71338H43.1616V7.79724H44.1905V10.9207H45.2194V14.0441H46.2484V17.1675H47.2851V20.2831H45.2194V17.1675H37.9984V20.2831H35.939H35.9421ZM44.1936 15.0821V14.0441H43.1647V10.9207H42.128V8.83681H41.0991V10.9207H40.0702V14.0441H39.0335V15.0821H44.1952H44.1936Z" fill="#999999"/>
</svg>