<svg width="411" height="121" viewBox="0 0 411 121" fill="none" xmlns="http://www.w3.org/2000/svg">
<rect width="410.55" height="120.75" rx="60.375" fill="#0000FF"/>
<path d="M115.55 84.2246V79.9205H119.854V75.6165H124.187V58.3707H119.854V54.0371H111.246V49.733H89.6663V45.429H85.3622V36.7913H89.6663V32.4872H111.246V36.7913H115.55V41.1249H124.187V32.4872H119.854V28.1832H115.55V23.8496H85.3622V28.1832H81.0582V32.4872H76.7541V49.733H81.0582V54.0371H89.6663V58.3707H111.246V62.6747H115.55V71.3124H111.246V75.6165H89.6663V71.3124H85.3622V66.9788H76.7541V75.6165H81.0582V79.9205H85.3622V84.2246H115.55ZM156.468 84.2246V79.9205H160.772V84.2246H169.41V41.1249H160.772V71.3124H156.468V75.6165H145.678V71.3124H141.374V41.1249H132.766V75.6165H137.07V79.9205H141.374V84.2246H156.468ZM186.655 84.2246V79.9205H190.96V84.2246H208.235V79.9205H212.539V75.6165H216.843V49.733H212.539V45.429H208.235V41.1249H190.96V45.429H186.655V23.8496H178.047V84.2246H186.655ZM190.96 75.6165V71.3124H186.655V54.0371H190.96V49.733H203.901V54.0371H208.235V71.3124H203.901V75.6165H190.96ZM234.059 84.2246V54.0371H238.363V49.733H247.001V54.0371H251.305V84.2246H259.943V54.0371H264.247V49.733H272.884V54.0371H277.188V84.2246H285.826V49.733H281.493V45.429H277.188V41.1249H259.943V45.429H251.305V41.1249H238.363V45.429H234.059V41.1249H225.451V84.2246H234.059ZM303.042 34.6393V26.0311H294.434V34.6393H303.042ZM303.042 84.2246V41.1249H294.434V84.2246H303.042ZM333.2 84.2246V75.6165H324.592V47.581H333.2V41.1249H324.592V28.1832H315.955V41.1249H309.499V47.581H315.955V79.9205H320.259V84.2246H333.2Z" fill="white"/>
</svg>